P3
7 6
255
255 255 0 
63 102 102 
63 102 102 
63 102 102 
63 102 102 
63 102 102 
63 102 102 
63 102 102 
63 102 102 
63 102 102 
63 102 102 
63 22 102 
63 102 102 
255 0 0 
63 102 102 
63 102 102 
63 102 22 
63 22 102 
63 102 102 
63 102 102 
63 102 102 
63 22 102 
63 22 102 
63 102 102 
63 102 102 
63 102 102 
63 22 102 
63 22 102 
63 102 102 
63 102 102 
63 22 102 
63 22 102 
63 102 102 
63 102 102 
63 102 102 
63 102 102 
63 102 102 
63 102 102 
63 102 102 
63 102 102 
63 102 102 
63 102 102 

